HIERARCHY
ROOT SpineBase
{
  OFFSET 0.000000 0.000000 0.000000
  CHANNELS 6 Xposition Yposition Zposition Zrotation Xrotation Yrotation
  JOINT SpineMid
  {
    OFFSET 0.000000 36.394261 0.000000
    CHANNELS 3 Zrotation Xrotation Yrotation
    JOINT SpineShoulder
    {
      OFFSET -0.033612 26.967464 -0.929324
      CHANNELS 3 Zrotation Xrotation Yrotation
      JOINT Neck
      {
        OFFSET -0.013005 8.894769 -0.682487
        CHANNELS 3 Zrotation Xrotation Yrotation
        JOINT Head
        {
          OFFSET 7.011468 8.925909 5.225415
          CHANNELS 3 Zrotation Xrotation Yrotation
          End Site
          {
            OFFSET 0 0 0
          }
        }
      }
      JOINT ShoulderLeft
      {
        OFFSET -2.379706 -4.845490 -14.971565
        CHANNELS 3 Zrotation Xrotation Yrotation
        JOINT ElbowLeft
        {
          OFFSET 4.615208 -26.041959 -4.883428
          CHANNELS 3 Zrotation Xrotation Yrotation
          JOINT WristLeft
          {
            OFFSET 6.712494 -22.336871 3.620775
            CHANNELS 3 Zrotation Xrotation Yrotation
            JOINT HandLeft
            {
              OFFSET -0.143792 -6.311920 2.465113
              CHANNELS 3 Zrotation Xrotation Yrotation
              JOINT HandTipLeft
              {
                OFFSET 0.849540 -7.872056 1.257866
                CHANNELS 3 Zrotation Xrotation Yrotation
                End Site
                {
                  OFFSET 0 0 0
                }
              }
              JOINT ThumbLeft
              {
                OFFSET -4.206519 1.053945 -0.344127
                CHANNELS 3 Zrotation Xrotation Yrotation
                End Site
                {
                  OFFSET 0 0 0
                }
              }
            }
          }
        }
      }
      JOINT ShoulderRight
      {
        OFFSET 12.853277 -8.236569 -19.217828
        CHANNELS 3 Zrotation Xrotation Yrotation
        JOINT ElbowRight
        {
          OFFSET -10.348828 -19.989814 -14.302951
          CHANNELS 3 Zrotation Xrotation Yrotation
          JOINT WristRight
          {
            OFFSET 3.877244 -18.173073 4.506959
            CHANNELS 3 Zrotation Xrotation Yrotation
            JOINT HandRight
            {
              OFFSET -0.253947 3.256001 7.723369
              CHANNELS 3 Zrotation Xrotation Yrotation
              JOINT HandTipRight
              {
                OFFSET 1.182561 -3.657147 0.252897
                CHANNELS 3 Zrotation Xrotation Yrotation
                End Site
                {
                  OFFSET 0 0 0
                }
              }
              JOINT ThumbRight
              {
                OFFSET 1.769591 -3.227008 -0.927786
                CHANNELS 3 Zrotation Xrotation Yrotation
                End Site
                {
                  OFFSET 0 0 0
                }
              }
            }
          }
        }
      }
    }
  }
  JOINT HipLeft
  {
    OFFSET -6.242545 3.438300 -7.278260
    CHANNELS 3 Zrotation Xrotation Yrotation
    JOINT KneeLeft
    {
      OFFSET 1.695060 -31.373561 2.882852
      CHANNELS 3 Zrotation Xrotation Yrotation
      JOINT AnkleLeft
      {
        OFFSET -7.338173 -33.760422 2.917451
        CHANNELS 3 Zrotation Xrotation Yrotation
        JOINT FootLeft
        {
          OFFSET 4.534032 -7.073547 -3.198081
          CHANNELS 3 Zrotation Xrotation Yrotation
          End Site
          {
            OFFSET 0 0 0
          }
        }
      }
    }
  }
  JOINT HipRight
  {
    OFFSET 6.472805 -1.724634 -0.659413
    CHANNELS 3 Zrotation Xrotation Yrotation
    JOINT KneeRight
    {
      OFFSET -13.824908 -31.059244 13.647442
      CHANNELS 3 Zrotation Xrotation Yrotation
      JOINT AnkleRight
      {
        OFFSET -4.730170 -33.474636 -7.476965
        CHANNELS 3 Zrotation Xrotation Yrotation
        JOINT FootRight
        {
          OFFSET 1.705065 1.029992 -13.071324
          CHANNELS 3 Zrotation Xrotation Yrotation
          End Site
          {
            OFFSET 0 0 0
          }
        }
      }
    }
  }
}
MOTION
Frames: 12
Frame Time: 0.033333
-9.225725 69.690475 345.362734 -0.000000 0.000000 -27.498777 0.000000 -0.000000 27.498777 -0.000000 0.000000 0.000000 -0.000000 0.000000 0.000000 0.000000 0.000000 0.000000 -0.000000 0.000000 0.000000 -0.000000 0.000000 0.000000 -0.000000 0.000000 0.000000 -0.000000 0.000000 0.000000 0.000000 0.000000 0.000000 0.000000 0.000000 0.000000 -0.000000 0.000000 0.000000 -0.000000 0.000000 0.000000 -0.000000 0.000000 0.000000 -0.000000 0.000000 0.000000 0.000000 0.000000 0.000000 0.000000 0.000000 0.000000 0.000000 -0.000000 27.498777 -0.000000 0.000000 0.000000 -0.000000 0.000000 0.000000 0.000000 0.000000 0.000000 0.000000 -0.000000 27.498777 -0.000000 0.000000 0.000000 -0.000000 0.000000 0.000000 0.000000 0.000000 0.000000
-9.206735 69.677065 345.369415 0.081896 -0.052364 -27.385605 -0.096805 0.008825 27.385649 -0.000000 0.000000 0.000000 -0.000000 0.000000 0.000000 0.000000 0.000000 0.000000 -0.000000 0.000000 0.000000 -0.000000 0.000000 0.000000 0.972626 -0.275962 0.388205 0.676016 1.785579 0.011955 0.000000 0.000000 0.000000 0.000000 0.000000 0.000000 -0.000000 0.000000 0.000000 -0.000000 0.000000 0.000000 -0.308505 0.479631 0.763062 1.685432 2.028874 0.130608 0.000000 0.000000 0.000000 0.000000 0.000000 0.000000 -0.096805 0.008825 27.385649 -0.000000 0.000000 0.000000 -0.000000 0.000000 0.000000 0.000000 0.000000 0.000000 -0.096805 0.008825 27.385649 -0.000000 0.000000 0.000000 -0.000000 0.000000 0.000000 0.000000 0.000000 0.000000
-9.194142 69.664724 345.376022 0.149964 -0.098848 -27.289456 -0.178594 0.019090 27.289615 -0.000000 0.000000 0.000000 -0.000000 0.000000 0.000000 0.000000 0.000000 0.000000 -0.000000 0.000000 0.000000 -0.000000 0.000000 0.000000 1.606190 -0.521872 0.645592 1.484540 3.394002 0.063707 0.000000 0.000000 0.000000 0.000000 0.000000 0.000000 -0.000000 0.000000 0.000000 -0.000000 0.000000 0.000000 -0.488737 0.879910 1.210009 2.919703 3.593190 0.363017 0.000000 0.000000 0.000000 0.000000 0.000000 0.000000 -0.178594 0.019090 27.289615 -0.000000 0.000000 0.000000 -0.040839 -1.264393 -0.796619 0.000000 0.000000 0.000000 -0.178594 0.019090 27.289615 -0.000000 0.000000 0.000000 -0.068984 0.107488 -1.064920 0.000000 0.000000 0.000000
-9.187946 69.653452 345.382555 0.204225 -0.139464 -27.210532 -0.245396 0.030645 27.210847 -0.000000 0.000000 0.000000 -0.000000 0.000000 0.000000 0.000000 0.000000 0.000000 -0.000000 0.000000 0.000000 -0.000000 0.000000 0.000000 1.926856 -0.746742 0.780473 2.338216 4.788463 0.150808 0.000000 0.000000 0.000000 0.000000 0.000000 0.000000 -0.000000 0.000000 0.000000 -0.000000 0.000000 0.000000 -0.537778 1.204118 1.342183 3.653074 4.654206 0.695472 0.000000 0.000000 0.000000 0.000000 0.000000 0.000000 -0.245396 0.030645 27.210847 -0.000000 0.000000 0.000000 -0.162955 -1.797935 -1.090119 0.000000 0.000000 0.000000 -0.245396 0.030645 27.210847 -0.000000 0.000000 0.000000 -0.092867 0.123063 -1.399293 0.000000 0.000000 0.000000
-9.188147 69.643251 345.389014 0.244701 -0.174223 -27.149003 -0.297240 0.043368 27.149487 -0.000000 0.000000 0.000000 -0.000000 0.000000 0.000000 0.000000 0.000000 0.000000 -0.000000 0.000000 0.000000 -0.000000 0.000000 0.000000 1.951100 -0.956517 0.797848 3.169051 5.936624 0.276125 0.000000 0.000000 0.000000 0.000000 0.000000 0.000000 -0.000000 0.000000 0.000000 -0.000000 0.000000 0.000000 -0.454438 1.453682 1.162438 3.859685 5.182525 1.126364 0.000000 0.000000 0.000000 0.000000 0.000000 0.000000 -0.297240 0.043368 27.149487 -0.000000 0.000000 0.000000 -0.351908 -2.262168 -1.312286 0.000000 0.000000 0.000000 -0.297240 0.043368 27.149487 -0.000000 0.000000 0.000000 -0.110085 0.112936 -1.601280 0.000000 0.000000 0.000000
-9.194746 69.634118 345.395399 0.271408 -0.203134 -27.105001 -0.334152 0.057163 27.105649 -0.000000 0.000000 0.000000 -0.000000 0.000000 0.000000 0.000000 0.000000 0.000000 -0.000000 0.000000 0.000000 -0.000000 0.000000 0.000000 1.686721 -1.154655 0.699570 3.930234 6.812662 0.446893 0.000000 0.000000 0.000000 0.000000 0.000000 0.000000 -0.000000 0.000000 0.000000 -0.000000 0.000000 0.000000 -0.239124 1.628037 0.674949 3.536055 5.153852 1.650418 0.000000 0.000000 0.000000 0.000000 0.000000 0.000000 -0.334152 0.057163 27.105649 -0.000000 0.000000 0.000000 -0.606916 -2.655143 -1.462079 0.000000 0.000000 0.000000 -0.334152 0.057163 27.105649 -0.000000 0.000000 0.000000 -0.120730 0.077002 -1.670757 0.000000 0.000000 0.000000
-9.203293 69.621321 345.404927 0.287308 -0.223410 -27.077257 -0.357511 0.068140 27.078030 -0.000000 0.000000 0.000000 -0.000000 0.000000 0.000000 0.000000 0.000000 0.000000 -0.000000 0.000000 0.000000 -0.000000 0.000000 0.000000 0.850360 -0.971965 0.360335 5.099102 6.950594 0.838461 0.000000 0.000000 0.000000 0.000000 0.000000 0.000000 -0.000000 0.000000 0.000000 -0.000000 0.000000 0.000000 0.160874 1.649454 -0.246805 3.257917 3.452784 2.060490 0.000000 0.000000 0.000000 0.000000 0.000000 0.000000 -0.357511 0.068140 27.078030 -0.000000 0.000000 0.000000 -0.875234 -3.232695 -1.732085 0.000000 0.000000 0.000000 -0.357511 0.068140 27.078030 -0.000000 0.000000 0.000000 -0.151158 -0.265533 -1.433712 0.000000 0.000000 0.000000
-9.210007 69.612041 345.419692 0.289446 -0.240352 -27.024104 -0.367050 0.082592 27.024976 -0.000000 0.000000 0.000000 -0.000000 0.000000 0.000000 0.000000 0.000000 0.000000 -0.000000 0.000000 0.000000 -0.000000 0.000000 0.000000 -0.154268 -1.122523 -0.036048 5.154744 7.254492 1.132462 0.000000 0.000000 0.000000 0.000000 0.000000 0.000000 -0.000000 0.000000 0.000000 -0.000000 0.000000 0.000000 0.534243 1.791370 -1.094848 2.714479 0.825257 2.153237 0.000000 0.000000 0.000000 0.000000 0.000000 0.000000 -0.367050 0.082592 27.024976 -0.000000 0.000000 0.000000 -1.116706 -3.669513 -1.923474 0.000000 0.000000 0.000000 -0.367050 0.082592 27.024976 -0.000000 0.000000 0.000000 -0.127650 -0.291783 -1.099678 0.000000 0.000000 0.000000
-9.233592 69.604829 345.425978 0.272183 -0.253116 -27.077333 -0.357567 0.101474 27.078251 -0.000000 0.000000 0.000000 0.700167 -0.485240 -0.025955 0.000000 0.000000 0.000000 -0.000000 0.000000 0.000000 -0.000000 0.000000 0.000000 -1.373923 -1.398554 -0.518899 6.287018 6.605115 1.492912 0.000000 0.000000 0.000000 0.000000 0.000000 0.000000 -0.000000 0.000000 0.000000 -0.000000 0.000000 0.000000 1.242808 1.645861 -2.741324 0.344300 -1.007451 3.048528 0.000000 0.000000 0.000000 0.000000 0.000000 0.000000 -1.170887 -0.081288 27.015383 0.807593 -0.206610 0.064467 -2.148151 -3.798541 -1.578135 0.000000 0.000000 0.000000 -0.357567 0.101474 27.078251 -0.000000 0.000000 0.000000 -0.000000 0.000000 0.000000 0.000000 0.000000 0.000000
-9.284232 69.604545 345.417477 0.242704 -0.259167 -27.255745 -0.334446 0.119240 27.256642 -0.000000 0.000000 0.000000 0.755250 -0.473870 -0.067297 0.000000 0.000000 0.000000 -0.000000 0.000000 0.000000 -0.000000 0.000000 0.000000 -2.574322 -1.330668 -1.000079 6.101962 5.775358 1.767314 0.000000 0.000000 0.000000 0.000000 0.000000 0.000000 -0.000000 0.000000 0.000000 -0.000000 0.000000 0.000000 1.812716 1.288474 -4.103759 -1.716393 -1.414264 4.062188 0.000000 0.000000 0.000000 0.000000 0.000000 0.000000 -0.334446 0.119240 27.256642 -0.000000 0.000000 0.000000 -2.599132 -3.638831 -1.277345 0.000000 0.000000 0.000000 -0.334446 0.119240 27.256642 -0.000000 0.000000 0.000000 -0.000000 0.000000 0.000000 0.000000 0.000000 0.000000
-9.355005 69.608572 345.406465 0.195540 -0.264454 -27.478890 -0.295505 0.144390 27.479714 -0.000000 0.000000 0.000000 0.729563 -0.346738 -0.153570 0.000000 0.000000 0.000000 -0.000000 0.000000 0.000000 -0.600827 -0.564667 -0.270255 -2.812232 -1.387472 -1.042317 6.420623 3.671024 1.734824 0.000000 0.000000 0.000000 0.000000 0.000000 0.000000 -0.000000 0.000000 0.000000 -0.000000 0.000000 0.000000 2.307885 1.564289 -5.204232 -2.885310 -1.307119 5.241757 0.000000 0.000000 0.000000 0.000000 0.000000 0.000000 -0.295505 0.144390 27.479714 -0.000000 0.000000 0.000000 -3.231574 -3.235942 -0.727023 0.000000 0.000000 0.000000 -0.295505 0.144390 27.479714 -0.000000 0.000000 0.000000 -0.156064 -0.118950 -1.756570 0.000000 0.000000 0.000000
-9.449845 69.610498 345.398414 0.116077 -0.270745 -27.477756 -0.227906 0.186643 27.478402 -0.000000 0.000000 0.000000 -0.000000 0.000000 0.000000 0.000000 0.000000 0.000000 -0.000000 0.000000 0.000000 -0.871195 -0.637296 -0.338051 -3.255866 -1.495271 -1.257425 6.363265 2.722935 1.791045 0.000000 0.000000 0.000000 0.000000 0.000000 0.000000 -0.000000 0.000000 0.000000 -0.000000 0.000000 0.000000 2.888584 0.259297 -6.781882 -5.123697 0.472725 7.042578 0.000000 0.000000 0.000000 0.000000 0.000000 0.000000 -0.227906 0.186643 27.478402 -0.000000 0.000000 0.000000 -3.984862 -2.595750 0.049531 0.000000 0.000000 0.000000 -0.227906 0.186643 27.478402 -0.000000 0.000000 0.000000 -0.319672 -0.475434 -3.093209 0.000000 0.000000 0.000000
